<mxfile host="Electron" modified="2024-03-10T15:45:40.215Z" agent="Mozilla/5.0 (Windows NT 10.0; Win64; x64) AppleWebKit/537.36 (KHTML, like Gecko) draw.io/22.1.11 Chrome/114.0.5735.289 Electron/25.9.8 Safari/537.36" etag="Kva_xnJRTsL-gPsr9zA6" version="22.1.11" type="device">
  <diagram name="Page-1" id="4U_9iW4FGKNIkKCO15xi">
    <mxGraphModel dx="1884" dy="701" grid="1" gridSize="10" guides="1" tooltips="1" connect="1" arrows="1" fold="1" page="1" pageScale="1" pageWidth="850" pageHeight="1100" math="0" shadow="0">
      <root>
        <mxCell id="0" />
        <mxCell id="1" parent="0" />
        <mxCell id="EelfNMz_Km-Fg59MOtV4-26" value="" style="rounded=0;whiteSpace=wrap;html=1;" vertex="1" parent="1">
          <mxGeometry x="-10" y="200" width="830" height="470" as="geometry" />
        </mxCell>
        <mxCell id="EelfNMz_Km-Fg59MOtV4-21" style="edgeStyle=orthogonalEdgeStyle;rounded=0;orthogonalLoop=1;jettySize=auto;html=1;entryX=0.5;entryY=1;entryDx=0;entryDy=0;" edge="1" parent="1" source="EelfNMz_Km-Fg59MOtV4-1" target="EelfNMz_Km-Fg59MOtV4-3">
          <mxGeometry relative="1" as="geometry" />
        </mxCell>
        <mxCell id="EelfNMz_Km-Fg59MOtV4-22" style="edgeStyle=orthogonalEdgeStyle;rounded=0;orthogonalLoop=1;jettySize=auto;html=1;entryX=0.5;entryY=1;entryDx=0;entryDy=0;" edge="1" parent="1" source="EelfNMz_Km-Fg59MOtV4-1" target="EelfNMz_Km-Fg59MOtV4-2">
          <mxGeometry relative="1" as="geometry" />
        </mxCell>
        <mxCell id="EelfNMz_Km-Fg59MOtV4-23" style="edgeStyle=orthogonalEdgeStyle;rounded=0;orthogonalLoop=1;jettySize=auto;html=1;entryX=0.5;entryY=1;entryDx=0;entryDy=0;" edge="1" parent="1" source="EelfNMz_Km-Fg59MOtV4-1" target="EelfNMz_Km-Fg59MOtV4-5">
          <mxGeometry relative="1" as="geometry" />
        </mxCell>
        <mxCell id="EelfNMz_Km-Fg59MOtV4-1" value="Blob Storage" style="rounded=0;whiteSpace=wrap;html=1;" vertex="1" parent="1">
          <mxGeometry x="330" y="550" width="140" height="60" as="geometry" />
        </mxCell>
        <mxCell id="EelfNMz_Km-Fg59MOtV4-2" value="Face API" style="rounded=0;whiteSpace=wrap;html=1;" vertex="1" parent="1">
          <mxGeometry x="440" y="420" width="140" height="60" as="geometry" />
        </mxCell>
        <mxCell id="EelfNMz_Km-Fg59MOtV4-11" style="edgeStyle=orthogonalEdgeStyle;rounded=0;orthogonalLoop=1;jettySize=auto;html=1;entryX=1;entryY=0.5;entryDx=0;entryDy=0;" edge="1" parent="1" source="EelfNMz_Km-Fg59MOtV4-3" target="EelfNMz_Km-Fg59MOtV4-10">
          <mxGeometry relative="1" as="geometry">
            <Array as="points">
              <mxPoint x="720" y="270" />
            </Array>
          </mxGeometry>
        </mxCell>
        <mxCell id="EelfNMz_Km-Fg59MOtV4-12" value="Validate ID card" style="edgeLabel;html=1;align=center;verticalAlign=middle;resizable=0;points=[];" vertex="1" connectable="0" parent="EelfNMz_Km-Fg59MOtV4-11">
          <mxGeometry x="0.01" y="-1" relative="1" as="geometry">
            <mxPoint as="offset" />
          </mxGeometry>
        </mxCell>
        <mxCell id="EelfNMz_Km-Fg59MOtV4-3" value="Intelligent Doc" style="rounded=0;whiteSpace=wrap;html=1;" vertex="1" parent="1">
          <mxGeometry x="650" y="420" width="140" height="60" as="geometry" />
        </mxCell>
        <mxCell id="EelfNMz_Km-Fg59MOtV4-15" style="edgeStyle=orthogonalEdgeStyle;rounded=0;orthogonalLoop=1;jettySize=auto;html=1;entryX=0;entryY=0.5;entryDx=0;entryDy=0;" edge="1" parent="1" source="EelfNMz_Km-Fg59MOtV4-4" target="EelfNMz_Km-Fg59MOtV4-10">
          <mxGeometry relative="1" as="geometry">
            <Array as="points">
              <mxPoint x="90" y="270" />
            </Array>
          </mxGeometry>
        </mxCell>
        <mxCell id="EelfNMz_Km-Fg59MOtV4-16" value="Validate bagge" style="edgeLabel;html=1;align=center;verticalAlign=middle;resizable=0;points=[];" vertex="1" connectable="0" parent="EelfNMz_Km-Fg59MOtV4-15">
          <mxGeometry x="0.0537" y="-3" relative="1" as="geometry">
            <mxPoint as="offset" />
          </mxGeometry>
        </mxCell>
        <mxCell id="EelfNMz_Km-Fg59MOtV4-4" value="Custom Vison" style="rounded=0;whiteSpace=wrap;html=1;" vertex="1" parent="1">
          <mxGeometry x="20" y="420" width="140" height="60" as="geometry" />
        </mxCell>
        <mxCell id="EelfNMz_Km-Fg59MOtV4-5" value="Video Indexer" style="rounded=0;whiteSpace=wrap;html=1;" vertex="1" parent="1">
          <mxGeometry x="215" y="420" width="140" height="60" as="geometry" />
        </mxCell>
        <mxCell id="EelfNMz_Km-Fg59MOtV4-6" value="Automation Kiosk" style="rounded=0;whiteSpace=wrap;html=1;" vertex="1" parent="1">
          <mxGeometry x="340" y="80" width="140" height="60" as="geometry" />
        </mxCell>
        <mxCell id="EelfNMz_Km-Fg59MOtV4-8" style="edgeStyle=orthogonalEdgeStyle;rounded=0;orthogonalLoop=1;jettySize=auto;html=1;exitX=0.5;exitY=1;exitDx=0;exitDy=0;" edge="1" parent="1">
          <mxGeometry relative="1" as="geometry">
            <mxPoint x="410" y="640" as="sourcePoint" />
            <mxPoint x="410" y="640" as="targetPoint" />
          </mxGeometry>
        </mxCell>
        <mxCell id="EelfNMz_Km-Fg59MOtV4-19" style="edgeStyle=orthogonalEdgeStyle;rounded=0;orthogonalLoop=1;jettySize=auto;html=1;entryX=0.5;entryY=1;entryDx=0;entryDy=0;" edge="1" parent="1" source="EelfNMz_Km-Fg59MOtV4-10" target="EelfNMz_Km-Fg59MOtV4-6">
          <mxGeometry relative="1" as="geometry" />
        </mxCell>
        <mxCell id="EelfNMz_Km-Fg59MOtV4-10" value="Validation Layer" style="shape=hexagon;perimeter=hexagonPerimeter2;whiteSpace=wrap;html=1;fixedSize=1;" vertex="1" parent="1">
          <mxGeometry x="350" y="230" width="120" height="80" as="geometry" />
        </mxCell>
        <mxCell id="EelfNMz_Km-Fg59MOtV4-13" style="edgeStyle=orthogonalEdgeStyle;rounded=0;orthogonalLoop=1;jettySize=auto;html=1;entryX=0.847;entryY=1.055;entryDx=0;entryDy=0;entryPerimeter=0;" edge="1" parent="1" source="EelfNMz_Km-Fg59MOtV4-2" target="EelfNMz_Km-Fg59MOtV4-10">
          <mxGeometry relative="1" as="geometry" />
        </mxCell>
        <mxCell id="EelfNMz_Km-Fg59MOtV4-14" value="Validate&amp;nbsp; boarding pass" style="edgeLabel;html=1;align=center;verticalAlign=middle;resizable=0;points=[];" vertex="1" connectable="0" parent="EelfNMz_Km-Fg59MOtV4-13">
          <mxGeometry x="-0.1463" y="-1" relative="1" as="geometry">
            <mxPoint as="offset" />
          </mxGeometry>
        </mxCell>
        <mxCell id="EelfNMz_Km-Fg59MOtV4-17" style="edgeStyle=orthogonalEdgeStyle;rounded=0;orthogonalLoop=1;jettySize=auto;html=1;entryX=0.153;entryY=1.005;entryDx=0;entryDy=0;entryPerimeter=0;" edge="1" parent="1" source="EelfNMz_Km-Fg59MOtV4-5" target="EelfNMz_Km-Fg59MOtV4-10">
          <mxGeometry relative="1" as="geometry" />
        </mxCell>
        <mxCell id="EelfNMz_Km-Fg59MOtV4-18" value="Extract face" style="edgeLabel;html=1;align=center;verticalAlign=middle;resizable=0;points=[];" vertex="1" connectable="0" parent="EelfNMz_Km-Fg59MOtV4-17">
          <mxGeometry x="0.0363" y="2" relative="1" as="geometry">
            <mxPoint as="offset" />
          </mxGeometry>
        </mxCell>
        <mxCell id="EelfNMz_Km-Fg59MOtV4-24" style="edgeStyle=orthogonalEdgeStyle;rounded=0;orthogonalLoop=1;jettySize=auto;html=1;entryX=0.443;entryY=1.027;entryDx=0;entryDy=0;entryPerimeter=0;" edge="1" parent="1" source="EelfNMz_Km-Fg59MOtV4-1" target="EelfNMz_Km-Fg59MOtV4-4">
          <mxGeometry relative="1" as="geometry" />
        </mxCell>
        <mxCell id="EelfNMz_Km-Fg59MOtV4-25" value="Can user blob storage to store all file or training" style="text;html=1;align=center;verticalAlign=middle;resizable=0;points=[];autosize=1;strokeColor=none;fillColor=none;" vertex="1" parent="1">
          <mxGeometry x="260" y="620" width="280" height="30" as="geometry" />
        </mxCell>
        <mxCell id="EelfNMz_Km-Fg59MOtV4-27" value="AZURE SERVICES" style="text;html=1;align=center;verticalAlign=middle;resizable=0;points=[];autosize=1;strokeColor=none;fillColor=none;" vertex="1" parent="1">
          <mxGeometry x="65" y="168" width="130" height="30" as="geometry" />
        </mxCell>
      </root>
    </mxGraphModel>
  </diagram>
</mxfile>
